<svg version="1.2" baseProfile="tiny-ps" xmlns="http://www.w3.org/2000/svg" viewBox="0 0 37 450" width="37" height="450">
	<title>desktop-logo-svg</title>
	<style>
		tspan { white-space:pre }
	</style>
	<path id="WANDERING WALEYS" fill="#c03b2b" aria-label="WANDERING WALEYS"  d="M4 403.06L4 403.06L4 404.67L34.27 413.64L34.27 421.46L21.8 425.23L34.27 428.91L34.27 436.68L3.77 445.93L3.77 447.63L1.06 447.63L1.06 437.28L22.77 430.7L13.2 427.81L3.77 430.66L3.77 432.36L1.06 432.36L1.06 422.01L22.77 415.43L1.06 408.9L1.06 403.06L4 403.06ZM34.27 375.55L34.27 375.55L34.27 387.05L22.36 387.05L22.36 392.8L34.27 392.8L34.27 404.3L31.33 404.3L31.33 402.69L22.36 402.69L22.36 404.25L19.55 404.25L19.55 402.69L9.94 402.69Q6.07 402.69 3.36 398.96Q0.64 395.24 0.64 389.95Q0.64 384.61 3.36 380.89Q6.07 377.16 9.94 377.16L31.33 377.16L31.33 375.55L34.27 375.55ZM19.55 387.05L19.55 387.05L6.95 387.05Q6.85 387.05 6.76 387.05Q6.67 387.05 6.58 387.05Q5.34 387.19 4.32 387.97Q3.31 388.71 3.31 389.95Q3.31 391.19 4.32 391.93Q5.34 392.66 6.58 392.8Q6.67 392.8 6.76 392.8Q6.85 392.8 6.95 392.8L19.55 392.8L19.55 387.05ZM34.27 344.96L34.27 344.96L34.27 356.87L7.27 356.87Q6.16 356.87 5.38 357.66Q4.6 358.44 4.6 359.54Q4.6 360.78 5.47 361.61Q6.35 362.39 7.54 362.39L34.27 362.39L34.27 373.99L31.42 373.99L31.42 372.28L4 372.28L4 373.99L1.06 373.99L1.06 362.39L3.45 362.39Q2.39 361.24 1.79 359.68Q1.2 358.12 1.1 356.46Q1.1 356.32 1.1 356.23Q1.1 356.14 1.1 356.05Q1.1 352.23 3.82 349.51Q6.53 346.8 10.35 346.8L31.65 346.8L31.65 344.96L34.27 344.96ZM17.66 316.62L17.66 316.62Q27.09 316.62 30.68 321.32Q34.27 326.01 34.27 332.26L34.27 343.35L31.33 343.35L31.33 341.79L4 341.79L4 343.35L1.06 343.35L1.06 332.22Q1.06 325.96 4.65 321.32Q8.23 316.62 17.66 316.62ZM17.66 327.11L17.66 327.11Q9.71 327.11 7.04 328.49Q4.37 329.83 4.05 331.85L31.42 331.85Q31.05 329.83 28.34 328.49Q25.58 327.11 17.66 327.11ZM34.27 292.29L34.27 292.29L34.27 305.91Q34.27 308.85 32.15 311.01Q29.99 313.17 27 313.17L22.36 313.17L22.36 314.83L19.64 314.83L19.64 313.17L8.33 313.17Q5.34 313.17 3.22 311.01Q1.06 308.85 1.06 305.91L1.06 292.98L5.84 292.98L5.84 296.66L3.86 297.21L3.86 300.43Q3.86 301.58 4.74 302.46Q5.57 303.28 6.76 303.28L19.64 303.28L19.64 295.69L22.36 295.69L22.36 303.28L28.57 303.28Q29.76 303.28 30.64 302.46Q31.46 301.58 31.46 300.43L31.46 296.52L29.49 295.97L29.49 292.29L34.27 292.29ZM34.27 264L34.27 264L34.27 273.98Q30.91 274.53 28.57 275.87Q26.22 277.2 25.07 279.46L34.27 279.46L34.27 290.96L31.33 290.96L31.33 289.35L4 289.35L4 290.96L1.06 290.96L1.06 280.1Q1.06 273.8 4.23 269.29Q7.36 264.78 12.01 264.78Q14.95 264.78 17.62 266.76Q20.24 268.74 22.03 271.96Q23.74 269.38 26.13 267.91Q28.52 266.39 31.33 265.56L31.33 264L34.27 264ZM14.21 275.5L14.21 275.5Q13.29 275.27 12.47 275.22Q11.64 275.13 10.86 275.13Q8.23 275.13 6.44 276.01Q4.6 276.88 4.19 278.26Q4.14 278.4 4.14 278.54Q4.09 278.67 4.09 278.81Q4.09 278.9 4.09 279Q4.09 279.04 4.14 279.13Q4.14 279.23 4.19 279.32Q4.19 279.36 4.19 279.46L21.76 279.46Q20.79 278.21 18.81 277.16Q16.79 276.05 14.21 275.5ZM34.27 250.15L34.27 250.15L34.27 263.03L31.33 263.03L31.33 261.47L4 261.47L4 263.03L1.06 263.03L1.06 250.15L4 250.15L4 251.53L31.33 251.53L31.33 250.15L34.27 250.15ZM34.27 219.84L34.27 219.84L34.27 231.75L7.27 231.75Q6.16 231.75 5.38 232.54Q4.6 233.32 4.6 234.42Q4.6 235.66 5.47 236.49Q6.35 237.27 7.54 237.27L34.27 237.27L34.27 248.87L31.42 248.87L31.42 247.16L4 247.16L4 248.87L1.06 248.87L1.06 237.27L3.45 237.27Q2.39 236.12 1.79 234.56Q1.2 233 1.1 231.34Q1.1 231.2 1.1 231.11Q1.1 231.02 1.1 230.93Q1.1 227.11 3.82 224.39Q6.53 221.68 10.35 221.68L31.65 221.68L31.65 219.84L34.27 219.84ZM32.25 191.23L32.25 191.23Q33.72 193.62 34.09 196.24Q34.41 198.86 34.45 201.58Q34.45 201.81 34.45 202.08Q34.45 202.31 34.45 202.54Q34.45 211.15 29.9 214.73Q25.3 218.28 17.16 218.37Q9.02 218.41 4.92 213.86Q0.83 209.31 0.83 200.29Q0.83 199.14 0.97 198.13Q1.1 197.07 1.29 196.1Q1.33 195.87 1.38 195.64Q1.43 195.41 1.47 195.18L5.98 195.18L5.98 199.37L3.77 200.06Q3.77 200.11 3.77 200.2Q3.77 200.29 3.73 200.34Q3.73 200.43 3.73 200.52Q3.73 200.57 3.73 200.66Q3.73 203.46 6.07 204.98Q8.42 206.45 11.22 207.05Q13.02 207.47 14.72 207.65Q16.38 207.79 17.43 207.79Q18.54 207.79 19.73 207.79Q20.93 207.74 22.17 207.6Q25.67 207.28 28.61 205.9Q31.56 204.48 31.83 201.07L20.88 201.07Q19.83 201.07 19.32 201.76Q18.77 202.41 18.77 203.56L16.1 203.56L16.1 199.83Q16.1 196.29 18.54 193.76Q20.93 191.23 24.47 191.23L32.25 191.23ZM4 130.92L4 130.92L4 132.53L34.27 141.5L34.27 149.32L21.8 153.09L34.27 156.77L34.27 164.55L3.77 173.79L3.77 175.5L1.06 175.5L1.06 165.15L22.77 158.57L13.2 155.67L3.77 158.52L3.77 160.22L1.06 160.22L1.06 149.87L22.77 143.3L1.06 136.76L1.06 130.92L4 130.92ZM34.27 103.41L34.27 103.41L34.27 114.91L22.36 114.91L22.36 120.66L34.27 120.66L34.27 132.16L31.33 132.16L31.33 130.55L22.36 130.55L22.36 132.12L19.55 132.12L19.55 130.55L9.94 130.55Q6.07 130.55 3.36 126.83Q0.64 123.1 0.64 117.81Q0.64 112.48 3.36 108.75Q6.07 105.02 9.94 105.02L31.33 105.02L31.33 103.41L34.27 103.41ZM19.55 114.91L19.55 114.91L6.95 114.91Q6.85 114.91 6.76 114.91Q6.67 114.91 6.58 114.91Q5.34 115.05 4.32 115.83Q3.31 116.57 3.31 117.81Q3.31 119.05 4.32 119.79Q5.34 120.53 6.58 120.66Q6.67 120.66 6.76 120.66Q6.85 120.66 6.95 120.66L19.55 120.66L19.55 114.91ZM34.27 79.08L34.27 79.08L34.27 101.99L31.33 101.99L31.33 100.42L4 100.42L4 101.99L1.06 101.99L1.06 89.11L4 89.11L4 90.49L31.33 90.49L31.33 84.65L26.17 83.27L26.17 79.08L34.27 79.08ZM34.27 54.79L34.27 54.79L34.27 68.41Q34.27 71.35 32.15 73.51Q29.99 75.68 27 75.68L22.36 75.68L22.36 77.33L19.64 77.33L19.64 75.68L8.33 75.68Q5.34 75.68 3.22 73.51Q1.06 71.35 1.06 68.41L1.06 55.48L5.84 55.48L5.84 59.16L3.86 59.71L3.86 62.93Q3.86 64.08 4.74 64.96Q5.57 65.79 6.76 65.79L19.64 65.79L19.64 58.2L22.36 58.2L22.36 65.79L28.57 65.79Q29.76 65.79 30.64 64.96Q31.46 64.08 31.46 62.93L31.46 59.02L29.49 58.47L29.49 54.79L34.27 54.79ZM4 24.16L4 24.16L4 26.36L22.86 26.36Q27.6 26.36 30.96 29.72Q34.27 33.08 34.27 37.82L34.32 49.04L27.55 49.04L27.55 44.86L31.19 43.48L31.19 41.13Q31.19 39.2 29.81 37.68Q28.38 36.12 26.5 36.12L21.25 36.16Q22.36 37.4 23 39.01Q23.64 40.58 23.64 42.37Q23.64 46.28 21.07 49.04Q18.45 51.76 14.26 51.76L4 51.76L4 53.64L1.06 53.64L1.06 42.46L17.39 42.46Q18.35 42.46 19.14 41.64Q19.87 40.81 20.06 39.84Q20.06 39.7 20.1 39.57Q20.1 39.43 20.1 39.29Q20.1 38 19.18 37.08Q18.26 36.16 17.11 36.16L1.06 36.16L1.06 24.16L4 24.16ZM23.09 6.58L23.09 6.58Q26.96 6.58 29.95 9.57Q32.89 12.52 35.28 18.27L33.21 21.44Q31.79 18.77 30.08 17.72Q28.38 16.61 26.63 16.61Q24.7 16.61 22.82 17.62Q20.93 18.64 19.37 20.02Q17.11 21.99 15.13 22.87Q13.16 23.7 11.41 23.7Q7.73 23.7 4.97 20.57Q2.21 17.44 0 13.16L4.05 7.04L6.07 10.08L5.2 12.15Q5.7 12.84 6.49 13.12Q7.22 13.39 8 13.39Q8.1 13.39 8.19 13.39Q8.23 13.39 8.28 13.39Q9.29 13.35 10.21 13.02Q11.13 12.66 11.73 12.2Q12.65 11.51 13.52 10.82Q14.35 10.13 15.13 9.53Q16.79 8.29 18.63 7.46Q20.42 6.63 23.09 6.58Z" />
</svg>