<svg version="1.2" baseProfile="tiny-ps" xmlns="http://www.w3.org/2000/svg" viewBox="0 0 450 36" width="450" height="36">
	<title>mobile-logo-svg</title>
	<style>
		tspan { white-space:pre }
	</style>
	<path id="WANDERING WALEYS" fill="#c03b2b" aria-label="WANDERING WALEYS"  d="M48.94 4.73L48.94 4.73L47.33 4.73L38.36 35L30.54 35L26.77 22.53L23.09 35L15.32 35L6.07 4.5L4.37 4.5L4.37 1.79L14.72 1.79L21.3 23.5L24.19 13.93L21.34 4.5L19.64 4.5L19.64 1.79L29.99 1.79L36.57 23.5L43.1 1.79L48.94 1.79L48.94 4.73ZM76.45 35L76.45 35L64.95 35L64.95 23.09L59.2 23.09L59.2 35L47.7 35L47.7 32.06L49.31 32.06L49.31 23.09L47.75 23.09L47.75 20.28L49.31 20.28L49.31 10.67Q49.31 6.8 53.04 4.09Q56.76 1.37 62.05 1.37Q67.39 1.37 71.11 4.09Q74.84 6.8 74.84 10.67L74.84 32.06L76.45 32.06L76.45 35ZM64.95 20.28L64.95 20.28L64.95 7.68Q64.95 7.58 64.95 7.49Q64.95 7.4 64.95 7.31Q64.81 6.07 64.03 5.05Q63.29 4.04 62.05 4.04Q60.81 4.04 60.07 5.05Q59.34 6.07 59.2 7.31Q59.2 7.4 59.2 7.49Q59.2 7.58 59.2 7.68L59.2 20.28L64.95 20.28ZM107.04 35L107.04 35L95.13 35L95.13 8Q95.13 6.89 94.34 6.11Q93.56 5.33 92.46 5.33Q91.22 5.33 90.39 6.2Q89.61 7.08 89.61 8.27L89.61 35L78.01 35L78.01 32.15L79.72 32.15L79.72 4.73L78.01 4.73L78.01 1.79L89.61 1.79L89.61 4.18Q90.76 3.12 92.32 2.52Q93.88 1.93 95.54 1.83Q95.68 1.83 95.77 1.83Q95.86 1.83 95.95 1.83Q99.77 1.83 102.49 4.55Q105.2 7.26 105.2 11.08L105.2 32.38L107.04 32.38L107.04 35ZM135.38 18.39L135.38 18.39Q135.38 27.82 130.68 31.41Q125.99 35 119.74 35L108.65 35L108.65 32.06L110.21 32.06L110.21 4.73L108.65 4.73L108.65 1.79L119.78 1.79Q126.04 1.79 130.68 5.38Q135.38 8.96 135.38 18.39ZM124.89 18.39L124.89 18.39Q124.89 10.44 123.51 7.77Q122.17 5.1 120.15 4.78L120.15 32.15Q122.17 31.78 123.51 29.07Q124.89 26.31 124.89 18.39ZM159.71 35L159.71 35L146.09 35Q143.15 35 140.99 32.88Q138.83 30.72 138.83 27.73L138.83 23.09L137.17 23.09L137.17 20.37L138.83 20.37L138.83 9.06Q138.83 6.07 140.99 3.95Q143.15 1.79 146.09 1.79L159.02 1.79L159.02 6.57L155.34 6.57L154.79 4.59L151.57 4.59Q150.42 4.59 149.54 5.47Q148.72 6.3 148.72 7.49L148.72 20.37L156.31 20.37L156.31 23.09L148.72 23.09L148.72 29.3Q148.72 30.49 149.54 31.37Q150.42 32.19 151.57 32.19L155.48 32.19L156.03 30.22L159.71 30.22L159.71 35ZM188 35L188 35L178.02 35Q177.47 31.64 176.13 29.3Q174.8 26.95 172.54 25.8L172.54 35L161.04 35L161.04 32.06L162.65 32.06L162.65 4.73L161.04 4.73L161.04 1.79L171.9 1.79Q178.2 1.79 182.71 4.96Q187.22 8.09 187.22 12.74Q187.22 15.68 185.24 18.35Q183.26 20.97 180.04 22.76Q182.62 24.47 184.09 26.86Q185.61 29.25 186.44 32.06L188 32.06L188 35ZM176.5 14.94L176.5 14.94Q176.73 14.02 176.78 13.2Q176.87 12.37 176.87 11.59Q176.87 8.96 175.99 7.17Q175.12 5.33 173.74 4.92Q173.6 4.87 173.46 4.87Q173.33 4.82 173.19 4.82Q173.1 4.82 173 4.82Q172.96 4.82 172.87 4.87Q172.77 4.87 172.68 4.92Q172.64 4.92 172.54 4.92L172.54 22.49Q173.79 21.52 174.84 19.54Q175.95 17.52 176.5 14.94ZM201.85 35L201.85 35L188.97 35L188.97 32.06L190.53 32.06L190.53 4.73L188.97 4.73L188.97 1.79L201.85 1.79L201.85 4.73L200.47 4.73L200.47 32.06L201.85 32.06L201.85 35ZM232.16 35L232.16 35L220.25 35L220.25 8Q220.25 6.89 219.46 6.11Q218.68 5.33 217.58 5.33Q216.34 5.33 215.51 6.2Q214.73 7.08 214.73 8.27L214.73 35L203.13 35L203.13 32.15L204.84 32.15L204.84 4.73L203.13 4.73L203.13 1.79L214.73 1.79L214.73 4.18Q215.88 3.12 217.44 2.52Q219 1.93 220.66 1.83Q220.8 1.83 220.89 1.83Q220.98 1.83 221.07 1.83Q224.89 1.83 227.61 4.55Q230.32 7.26 230.32 11.08L230.32 32.38L232.16 32.38L232.16 35ZM260.77 32.98L260.77 32.98Q258.38 34.45 255.76 34.82Q253.14 35.14 250.42 35.18Q250.19 35.18 249.92 35.18Q249.69 35.18 249.46 35.18Q240.85 35.18 237.27 30.63Q233.72 26.03 233.63 17.89Q233.59 9.75 238.14 5.65Q242.69 1.56 251.71 1.56Q252.86 1.56 253.87 1.7Q254.93 1.83 255.9 2.02Q256.13 2.06 256.36 2.11Q256.59 2.16 256.82 2.2L256.82 6.71L252.63 6.71L251.94 4.5Q251.89 4.5 251.8 4.5Q251.71 4.5 251.66 4.46Q251.57 4.46 251.48 4.46Q251.43 4.46 251.34 4.46Q248.54 4.46 247.02 6.8Q245.55 9.15 244.95 11.95Q244.53 13.75 244.35 15.45Q244.21 17.11 244.21 18.16Q244.21 19.27 244.21 20.46Q244.26 21.66 244.4 22.9Q244.72 26.4 246.1 29.34Q247.52 32.29 250.93 32.56L250.93 21.61Q250.93 20.56 250.24 20.05Q249.59 19.5 248.44 19.5L248.44 16.83L252.17 16.83Q255.71 16.83 258.24 19.27Q260.77 21.66 260.77 25.2L260.77 32.98ZM321.08 4.73L321.08 4.73L319.47 4.73L310.5 35L302.68 35L298.91 22.53L295.23 35L287.45 35L278.21 4.5L276.5 4.5L276.5 1.79L286.85 1.79L293.43 23.5L296.33 13.93L293.48 4.5L291.78 4.5L291.78 1.79L302.13 1.79L308.7 23.5L315.24 1.79L321.08 1.79L321.08 4.73ZM348.59 35L348.59 35L337.09 35L337.09 23.09L331.34 23.09L331.34 35L319.84 35L319.84 32.06L321.45 32.06L321.45 23.09L319.88 23.09L319.88 20.28L321.45 20.28L321.45 10.67Q321.45 6.8 325.17 4.09Q328.9 1.37 334.19 1.37Q339.52 1.37 343.25 4.09Q346.98 6.8 346.98 10.67L346.98 32.06L348.59 32.06L348.59 35ZM337.09 20.28L337.09 20.28L337.09 7.68Q337.09 7.58 337.09 7.49Q337.09 7.4 337.09 7.31Q336.95 6.07 336.17 5.05Q335.43 4.04 334.19 4.04Q332.95 4.04 332.21 5.05Q331.47 6.07 331.34 7.31Q331.34 7.4 331.34 7.49Q331.34 7.58 331.34 7.68L331.34 20.28L337.09 20.28ZM372.92 35L372.92 35L350.01 35L350.01 32.06L351.58 32.06L351.58 4.73L350.01 4.73L350.01 1.79L362.89 1.79L362.89 4.73L361.51 4.73L361.51 32.06L367.35 32.06L368.73 26.9L372.92 26.9L372.92 35ZM397.21 35L397.21 35L383.59 35Q380.65 35 378.49 32.88Q376.32 30.72 376.32 27.73L376.32 23.09L374.67 23.09L374.67 20.37L376.32 20.37L376.32 9.06Q376.32 6.07 378.49 3.95Q380.65 1.79 383.59 1.79L396.52 1.79L396.52 6.57L392.84 6.57L392.29 4.59L389.07 4.59Q387.92 4.59 387.04 5.47Q386.21 6.3 386.21 7.49L386.21 20.37L393.8 20.37L393.8 23.09L386.21 23.09L386.21 29.3Q386.21 30.49 387.04 31.37Q387.92 32.19 389.07 32.19L392.98 32.19L393.53 30.22L397.21 30.22L397.21 35ZM427.84 4.73L427.84 4.73L425.64 4.73L425.64 23.59Q425.64 28.33 422.28 31.69Q418.92 35 414.18 35L402.96 35.05L402.96 28.28L407.14 28.28L408.52 31.92L410.87 31.92Q412.8 31.92 414.32 30.54Q415.88 29.11 415.88 27.23L415.84 21.98Q414.6 23.09 412.99 23.73Q411.42 24.37 409.63 24.37Q405.72 24.37 402.96 21.8Q400.24 19.18 400.24 14.99L400.24 4.73L398.36 4.73L398.36 1.79L409.54 1.79L409.54 18.12Q409.54 19.08 410.36 19.87Q411.19 20.6 412.16 20.79Q412.3 20.79 412.43 20.83Q412.57 20.83 412.71 20.83Q414 20.83 414.92 19.91Q415.84 18.99 415.84 17.84L415.84 1.79L427.84 1.79L427.84 4.73ZM445.42 23.82L445.42 23.82Q445.42 27.69 442.43 30.68Q439.48 33.62 433.73 36.01L430.56 33.94Q433.23 32.52 434.28 30.81Q435.39 29.11 435.39 27.36Q435.39 25.43 434.38 23.55Q433.36 21.66 431.98 20.1Q430.01 17.84 429.13 15.86Q428.3 13.89 428.3 12.14Q428.3 8.46 431.43 5.7Q434.56 2.94 438.84 0.73L444.96 4.78L441.92 6.8L439.85 5.93Q439.16 6.43 438.88 7.22Q438.61 7.95 438.61 8.73Q438.61 8.83 438.61 8.92Q438.61 8.96 438.61 9.01Q438.65 10.02 438.98 10.94Q439.34 11.86 439.8 12.46Q440.49 13.38 441.18 14.25Q441.87 15.08 442.47 15.86Q443.71 17.52 444.54 19.36Q445.37 21.15 445.42 23.82Z" />
</svg>